<?xml version="1.0" encoding="utf-8"?>
<!-- Generator: Adobe Illustrator 18.1.0, SVG Export Plug-In . SVG Version: 6.00 Build 0)  -->
<svg version="1.1" id="Layer_1" xmlns="http://www.w3.org/2000/svg" xmlns:xlink="http://www.w3.org/1999/xlink" x="0px" y="0px"
	 width="300px" height="45px" viewBox="0 0 300 45" enable-background="new 0 0 300 45" xml:space="preserve">
<g id="layer1">
	<g id="g2986" transform="translate(304.28571,498.38361)">
		<g id="g2988">
			<g id="g2990">
				<g id="g2992">
					<g id="g2994">
						<circle id="circle2996" fill="#CC0000" cx="-190.6" cy="-480" r="17.9"/>
						<g id="g2998">
							<path id="path3000" fill="#0066CC" d="M-204.4-468.6c-0.5-0.6-1-1.2-1.4-1.9h6.4c0.4-0.6,0.7-1.2,1-1.9h-8.4
								c-0.3-0.6-0.5-1.2-0.8-1.9h9.9c0.6-1.8,0.9-3.7,0.9-5.7c0-1.3-0.1-2.6-0.4-3.8h-11c0.1-0.6,0.3-1.3,0.5-1.9h9.9
								c-0.2-0.7-0.5-1.3-0.8-1.9h-8.4c0.3-0.7,0.7-1.3,1-1.9h6.4c-0.4-0.7-0.9-1.3-1.4-1.9h-3.6c0.6-0.7,1.2-1.3,1.8-1.9
								c-3.2-2.9-7.4-4.6-12-4.6c-9.9,0-17.9,8-17.9,17.9s8,17.9,17.9,17.9c4.6,0,8.9-1.8,12-4.6c0.6-0.6,1.3-1.2,1.8-1.9
								C-201-468.6-204.4-468.6-204.4-468.6z"/>
						</g>
					</g>
					<g id="g3002">
						<path id="path3004" fill="#CC0000" d="M-175-470c0-0.3,0.3-0.6,0.6-0.6s0.6,0.3,0.6,0.6c0,0.3-0.3,0.6-0.6,0.6
							C-174.8-469.4-175-469.7-175-470z M-174.5-469.6c0.2,0,0.4-0.2,0.4-0.4c0-0.2-0.2-0.4-0.4-0.4s-0.4,0.2-0.4,0.4
							C-174.9-469.8-174.7-469.6-174.5-469.6z M-174.5-469.7h-0.1v-0.5h0.2h0.1l0.1,0.1c0,0.1,0,0.1-0.1,0.1l0.1,0.2h-0.1l-0.1-0.2
							h-0.1L-174.5-469.7L-174.5-469.7z M-174.5-470L-174.5-470c0.1,0,0.1,0,0.1,0s0,0,0-0.1c0,0,0,0,0-0.1h-0.1h-0.1v0.2H-174.5z"
							/>
					</g>
				</g>
				<g id="g3006">
					<g id="g3008">
						<path id="path3010" fill="#000066" d="M-202.9-475.1c-0.8,0.2-1.5,0.3-2.3,0.3c-2.5,0-3.8-1.1-3.8-3.3c0-2.5,1.7-4.4,3.9-4.4
							c1.8,0,3,1,3,2.7c0,0.5-0.1,1.1-0.3,1.8h-4.4c-0.2,1.1,0.6,1.5,1.9,1.5c0.8,0,1.5-0.1,2.3-0.5L-202.9-475.1z M-204.1-479.6
							c0-0.2,0.2-1.3-1-1.3c-0.7,0-1.2,0.5-1.4,1.3H-204.1z"/>
						<path id="path3012" fill="#000066" d="M-201.4-480.1c0,0.9,0.5,1.6,1.7,2.1c0.9,0.4,1.1,0.5,1.1,0.8c0,0.5-0.4,0.7-1.3,0.7
							c-0.7,0-1.3-0.1-2-0.3l-0.3,1.7c0.6,0.2,1.6,0.2,2.4,0.2c2.4,0,3.5-0.8,3.5-2.5c0-1-0.5-1.6-1.6-2.1c-1-0.4-1.1-0.5-1.1-0.8
							c0-0.4,0.4-0.6,1.1-0.6c0.4,0,1.1,0,1.6,0.1l0.3-1.7c-0.6-0.1-1.5-0.1-2-0.1C-200.5-482.6-201.4-481.4-201.4-480.1z"/>
						<path id="path3014" fill="#000066" d="M-210.2-475h-1.9v-0.8c-0.6,0.6-1.3,0.9-2.4,0.9c-1.2,0-2-0.8-2-2
							c0-1.8,1.4-2.9,3.9-2.9c0.3,0,0.6,0,0.9,0.1c0.1-0.2,0.1-0.3,0.1-0.5c0-0.5-0.4-0.7-1.4-0.7s-1.7,0.2-2.4,0.3l0.3-1.7
							c1.1-0.3,1.9-0.4,2.7-0.4c1.9,0,2.9,0.8,2.9,2.2c0,0.4-0.1,1.1-0.2,1.5C-209.6-478.4-210.1-475.6-210.2-475z M-211.8-478.3
							c-0.2,0-0.3,0-0.5,0c-1.3,0-1.9,0.4-1.9,1.1c0,0.5,0.3,0.8,0.8,0.8C-212.5-476.4-211.9-477.2-211.8-478.3z"/>
						<path id="path3016" fill="#000066" d="M-192.4-475.1c-0.6,0.2-1.1,0.2-1.6,0.2c-1.1,0-1.8-0.6-1.8-1.6c0-0.3,0.2-1.6,0.3-2
							s1.1-5.7,1.1-5.7h2.2l-0.3,1.8h1.1l-0.3,1.8h-1.1c0,0-0.6,3.2-0.6,3.4c0,0.4,0.2,0.5,0.8,0.5c0.3,0,0.5,0,0.6-0.1
							C-192-476.8-192.4-475.1-192.4-475.1z"/>
						<path id="path3018" fill="#000066" d="M-182.5-482.6c-1.6,0-2.9,0.7-3.6,1.8l0.6-1.7c-1.2-0.4-1.9,0.2-2.6,1.1
							c0,0-0.1,0.1-0.2,0.3v-1.3h-2.1c-0.3,2.3-0.8,4.6-1.2,6.9l-0.1,0.5h2.2c0.2-1.2,0.4-2.1,0.6-2.9c0.5-2.1,1.3-2.7,2.5-2.4
							c-0.3,0.6-0.4,1.3-0.4,2.1c0,1.9,1,3.4,3.5,3.4s4.4-1.3,4.4-4.4C-179-481.1-180.2-482.6-182.5-482.6z M-183.2-476.7
							c-0.8,0-1.3-0.7-1.3-1.6c0-1.2,0.7-2.5,1.8-2.5c0.9,0,1.2,0.7,1.2,1.5C-181.4-477.6-182.1-476.7-183.2-476.7z"/>
						<polygon id="polygon3020" fill="#000066" points="-221.4,-475 -223.5,-475 -223.8,-481.9 -225.2,-475 -227.2,-475 
							-225.5,-484.1 -222,-484.1 -221.7,-479 -219.5,-484.1 -215.7,-484.1 -217.5,-475 -219.7,-475 -218.4,-482 						"/>
					</g>
					<g id="g3022">
						<path id="path3024" fill="#FFFFFF" d="M-178.8-476.1c0-0.3,0.3-0.6,0.6-0.6s0.6,0.3,0.6,0.6c0,0.3-0.3,0.6-0.6,0.6
							S-178.8-475.8-178.8-476.1z M-178.3-475.7c0.2,0,0.4-0.2,0.4-0.4c0-0.2-0.2-0.4-0.4-0.4s-0.4,0.2-0.4,0.4
							C-178.7-475.9-178.5-475.7-178.3-475.7z M-178.3-475.9h-0.1v-0.5h0.2h0.1l0.1,0.1c0,0.1,0,0.1-0.1,0.1l0.1,0.2h-0.1l-0.1-0.2
							h-0.1C-178.3-476.2-178.3-475.9-178.3-475.9z M-178.3-476.1L-178.3-476.1C-178.2-476.1-178.2-476.1-178.3-476.1
							c0.1,0,0.1,0,0.1-0.1c0,0,0,0,0-0.1h-0.1l0,0V-476.1z"/>
						<path id="path3026" fill="#FFFFFF" d="M-202.3-475.7c-0.8,0.2-1.5,0.3-2.3,0.3c-2.5,0-3.8-1.1-3.8-3.3c0-2.5,1.7-4.4,3.9-4.4
							c1.8,0,3,1,3,2.7c0,0.5-0.1,1.1-0.3,1.8h-4.4c-0.2,1.1,0.6,1.5,1.9,1.5c0.8,0,1.5-0.1,2.3-0.5
							C-202-477.6-202.3-475.7-202.3-475.7z M-203.5-480.1c0-0.2,0.2-1.3-1-1.3c-0.7,0-1.2,0.5-1.4,1.3H-203.5z"/>
						<path id="path3028" fill="#FFFFFF" d="M-200.8-480.6c0,0.9,0.5,1.6,1.7,2.1c0.9,0.4,1.1,0.5,1.1,0.8c0,0.5-0.4,0.7-1.3,0.7
							c-0.7,0-1.3-0.1-2-0.3l-0.3,1.7c0.6,0.2,1.6,0.2,2.4,0.2c2.4,0,3.5-0.8,3.5-2.5c0-1-0.5-1.6-1.6-2.1c-1-0.4-1.1-0.5-1.1-0.8
							c0-0.4,0.4-0.6,1.1-0.6c0.4,0,1.1,0,1.6,0.1l0.3-1.7c-0.6-0.1-1.5-0.1-2-0.1C-199.9-483.1-200.8-482-200.8-480.6z"/>
						<path id="path3030" fill="#FFFFFF" d="M-209.6-475.5h-1.9v-0.8c-0.6,0.6-1.3,0.9-2.4,0.9c-1.2,0-2-0.8-2-2
							c0-1.8,1.4-2.9,3.9-2.9c0.3,0,0.6,0,0.9,0.1c0.1-0.2,0.1-0.3,0.1-0.5c0-0.5-0.4-0.7-1.4-0.7s-1.7,0.2-2.4,0.3l0.3-1.7
							c1.1-0.3,1.9-0.4,2.7-0.4c1.9,0,2.9,0.8,2.9,2.2c0,0.4-0.1,1.1-0.2,1.5C-209-479-209.6-476.2-209.6-475.5z M-211.3-478.8
							c-0.2,0-0.3,0-0.5,0c-1.3,0-1.9,0.4-1.9,1.1c0,0.5,0.3,0.8,0.8,0.8C-212-477-211.3-477.8-211.3-478.8z"/>
						<path id="path3032" fill="#FFFFFF" d="M-191.9-475.6c-0.6,0.2-1.1,0.2-1.6,0.2c-1.1,0-1.8-0.6-1.8-1.6c0-0.3,0.2-1.6,0.3-2
							s1.1-5.7,1.1-5.7h2.2l-0.3,1.8h1.1l-0.3,1.8h-1.1c0,0-0.6,3.2-0.6,3.4c0,0.4,0.2,0.5,0.8,0.5c0.3,0,0.5,0,0.6-0.1
							L-191.9-475.6z"/>
						<path id="path3034" fill="#FFFFFF" d="M-180.8-479.9c0,1.7-0.7,2.7-1.8,2.7c-0.8,0-1.3-0.7-1.3-1.6c0-1.2,0.7-2.5,1.8-2.5
							C-181.2-481.4-180.8-480.6-180.8-479.9z M-178.4-479.8c0-1.9-1.2-3.3-3.5-3.3c-2.6,0-4.4,1.8-4.4,4.4c0,1.9,1,3.4,3.5,3.4
							C-180.3-475.4-178.4-476.8-178.4-479.8z"/>
						<path id="path3036" fill="#FFFFFF" d="M-189.9-483c-0.3,2.3-0.8,4.6-1.2,6.9l-0.1,0.5h2.2c0.8-4.5,1.1-5.7,2.8-5.3l0.8-2.1
							c-1.2-0.4-1.9,0.2-2.6,1.1c0.1-0.4,0.2-0.8,0.2-1.1H-189.9z"/>
						<polygon id="polygon3038" fill="#FFFFFF" points="-220.9,-475.5 -222.9,-475.5 -223.3,-482.5 -224.6,-475.5 -226.6,-475.5 
							-224.9,-484.6 -221.4,-484.6 -221.2,-479 -218.8,-484.6 -215.1,-484.6 -216.9,-475.5 -219.1,-475.5 -217.8,-482.5 						"/>
					</g>
				</g>
			</g>
		</g>
		<g id="g3040">
			<g id="g3042">
				<g id="g3044">
					<g id="g3046">
						<circle id="circle3048" fill="#CC0000" cx="-285.4" cy="-478.7" r="17.9"/>
						<g id="g3050">
							<path id="path3052" fill="#FF9900" d="M-261.3-496.7c-4.6,0-8.9,1.8-12,4.6c-0.6,0.6-1.3,1.2-1.8,1.9h3.6
								c0.5,0.6,1,1.2,1.4,1.9h-6.4c-0.4,0.6-0.7,1.2-1,1.9h8.4c0.3,0.6,0.5,1.2,0.8,1.9h-10c-0.2,0.6-0.4,1.3-0.5,1.9h11
								c0.3,1.2,0.4,2.5,0.4,3.8c0,2-0.3,3.9-0.9,5.7h-10c0.2,0.7,0.5,1.3,0.8,1.9h8.4c-0.3,0.7-0.7,1.3-1,1.9h-6.4
								c0.4,0.7,0.9,1.3,1.4,1.9h3.6c-0.6,0.7-1.2,1.3-1.8,1.9c3.2,2.9,7.4,4.6,12,4.6c9.9,0,17.9-8,17.9-17.9
								C-243.4-488.6-251.4-496.7-261.3-496.7z"/>
						</g>
					</g>
					<path id="path3054" fill="#FF9900" d="M-245.7-468.7c0-0.3,0.3-0.6,0.6-0.6s0.6,0.3,0.6,0.6s-0.3,0.6-0.6,0.6
						C-245.5-468.1-245.7-468.4-245.7-468.7z M-245.2-468.3c0.2,0,0.4-0.2,0.4-0.4s-0.2-0.4-0.4-0.4s-0.4,0.2-0.4,0.4
						C-245.6-468.5-245.4-468.3-245.2-468.3z M-245.2-468.5L-245.2-468.5l-0.1-0.5h0.2h0.1l0.1,0.1c0,0.1,0,0.1-0.1,0.1l0.1,0.2
						h-0.1l-0.1-0.2h-0.1C-245.2-468.8-245.2-468.5-245.2-468.5z M-245.2-468.8L-245.2-468.8c0.1,0,0.1,0,0.1,0s0,0,0-0.1
						c0,0,0,0,0-0.1h-0.1h-0.1L-245.2-468.8L-245.2-468.8z"/>
				</g>
				<g id="g3056">
					<g id="g3058">
						<path id="path3060" fill="#000066" d="M-289.6-476.8c-0.2,0-0.3,0-0.4,0c-1.1,0-1.7,0.4-1.7,1.1c0,0.5,0.3,0.8,0.7,0.8
							C-290.2-474.9-289.6-475.7-289.6-476.8z M-288.1-473.5c-0.3,0-1.6,0-1.6,0v-0.8c-0.5,0.6-1.1,0.9-2,0.9c-1.1,0-1.8-0.8-1.8-2
							c0-1.8,1.3-2.9,3.4-2.9c0.2,0,0.5,0,0.8,0.1c0.1-0.2,0.1-0.3,0.1-0.5c0-0.5-0.3-0.7-1.2-0.7c-1,0-1.7,0.2-2.1,0.3
							c0-0.1,0.3-1.7,0.3-1.7c1-0.3,1.6-0.4,2.3-0.4c1.7,0,2.6,0.8,2.6,2.2c0,0.4-0.1,0.8-0.2,1.5
							C-287.7-476.3-288.1-474-288.1-473.5z"/>
						<polygon id="polygon3062" fill="#000066" points="-297.7,-473.5 -299,-473.5 -299.2,-480.4 -300.3,-473.5 -302.2,-473.5 
							-300.6,-482.6 -297.8,-482.6 -297.7,-477.5 -296,-482.6 -292.8,-482.6 -294.3,-473.5 -296.3,-473.5 -295.2,-480.5 						"/>
						<path id="path3064" fill="#000066" d="M-258.9-476.8c-0.2,0-0.3,0-0.4,0c-1.1,0-1.7,0.4-1.7,1.1c0,0.5,0.3,0.8,0.7,0.8
							C-259.5-474.9-258.9-475.7-258.9-476.8z M-257.5-473.5c-0.3,0-1.6,0-1.6,0v-0.8c-0.5,0.6-1.1,0.9-2,0.9c-1.1,0-1.8-0.8-1.8-2
							c0-1.8,1.3-2.9,3.4-2.9c0.2,0,0.5,0,0.8,0.1c0.1-0.2,0.1-0.3,0.1-0.5c0-0.5-0.3-0.7-1.2-0.7c-1,0-1.7,0.2-2.1,0.3
							c0-0.1,0.3-1.7,0.3-1.7c1-0.3,1.6-0.4,2.3-0.4c1.7,0,2.6,0.8,2.6,2.2c0,0.4-0.1,0.8-0.2,1.5
							C-257.1-476.3-257.4-474-257.5-473.5z"/>
						<path id="path3066" fill="#000066" d="M-279.5-473.6c-0.5,0.2-0.9,0.2-1.4,0.2c-1,0-1.5-0.6-1.5-1.6c0-0.3,0.1-1.2,0.3-2
							c0.1-0.7,0.8-5,0.8-5h1.9l-0.2,1.1h1.2l-0.3,1.8h-1.2c-0.2,1.4-0.5,3.2-0.5,3.4c0,0.4,0.2,0.5,0.7,0.5c0.2,0,0.4,0,0.5-0.1
							L-279.5-473.6z"/>
						<path id="path3068" fill="#000066" d="M-273.6-473.6c-0.7,0.2-1.3,0.3-2,0.3c-2.2,0-3.3-1.1-3.3-3.3c0-2.5,1.4-4.4,3.4-4.4
							c1.6,0,2.6,1,2.6,2.7c0,0.5-0.1,1.1-0.2,1.8h-3.9c-0.1,1.1,0.6,1.5,1.7,1.5c0.7,0,1.3-0.1,2-0.5L-273.6-473.6z M-274.6-478
							c0-0.2,0.2-1.3-0.9-1.3c-0.6,0-1.1,0.5-1.2,1.3H-274.6z"/>
						<path id="path3070" fill="#000066" d="M-287-478.5c0,0.9,0.5,1.6,1.5,2.1c0.8,0.4,0.9,0.5,0.9,0.8c0,0.5-0.3,0.7-1.1,0.7
							c-0.6,0-1.1-0.1-1.7-0.3c0,0-0.3,1.6-0.3,1.7c0.4,0.1,0.8,0.2,2,0.2c2.1,0,3-0.8,3-2.5c0-1-0.4-1.6-1.4-2.1
							c-0.8-0.4-0.9-0.5-0.9-0.8c0-0.4,0.3-0.6,1-0.6c0.4,0,0.9,0,1.4,0.1l0.3-1.7c-0.5-0.1-1.3-0.1-1.7-0.1
							C-286.2-481-287-479.9-287-478.5z"/>
						<path id="path3072" fill="#000066" d="M-264.1-480.8c0.5,0,1,0.1,1.7,0.5l0.3-2c-0.2-0.1-1.2-0.8-2.1-0.8
							c-1.3,0-2.4,0.6-3.2,1.7c-1.1-0.4-1.6,0.4-2.2,1.1l-0.5,0.1c0-0.2,0.1-0.5,0.1-0.7h-1.8c-0.2,2.3-0.7,4.6-1,6.9l-0.1,0.5h1.9
							c0.3-2.1,0.5-3.5,0.6-4.4l0.7-0.4c0.1-0.4,0.5-0.5,1.1-0.5c-0.1,0.5-0.1,1-0.1,1.5c0,2.4,1.3,3.9,3.4,3.9c0.5,0,1-0.1,1.7-0.3
							l0.3-2.1c-0.6,0.3-1.2,0.5-1.7,0.5c-1.1,0-1.8-0.8-1.8-2.2C-266.6-479.4-265.5-480.8-264.1-480.8z"/>
						<path id="path3074" fill="#000066" d="M-247.6-482.6l-0.4,2.6c-0.5-0.7-1.1-1.2-1.9-1.2c-1,0-1.9,0.7-2.5,1.8
							c-0.8-0.2-1.7-0.5-1.7-0.5l0,0c0.1-0.6,0.1-1,0.1-1.1h-1.8c-0.2,2.3-0.7,4.6-1,6.9l-0.1,0.5h1.9c0.3-1.7,0.5-3.1,0.6-4.3
							c0.7-0.6,1-1.1,1.7-1.1c-0.3,0.7-0.5,1.5-0.5,2.4c0,1.8,0.9,3.1,2.4,3.1c0.7,0,1.3-0.2,1.8-0.8l-0.1,0.7h1.8l1.5-9.1h-1.8
							V-482.6z M-250-475.2c-0.7,0-1-0.5-1-1.5c0-1.5,0.6-2.5,1.5-2.5c0.7,0,1,0.5,1,1.4C-248.5-476.2-249.1-475.2-250-475.2z"/>
					</g>
					<g id="g3076">
						<polygon id="polygon3078" fill="#FFFFFF" points="-297.1,-474 -298.4,-474 -298.6,-481 -299.8,-474 -301.6,-474 
							-300.1,-483.1 -297.3,-483.1 -297.2,-477.5 -295.3,-483.1 -292.3,-483.1 -293.8,-474 -295.7,-474 -294.6,-481 						"/>
						<path id="path3080" fill="#FFFFFF" d="M-289-477.3c-0.2,0-0.3,0-0.4,0c-1.1,0-1.7,0.4-1.7,1.1c0,0.5,0.3,0.8,0.7,0.8
							C-289.6-475.4-289-476.2-289-477.3z M-287.6-474c-0.3,0-1.6,0-1.6,0v-0.8c-0.5,0.6-1.1,0.9-2,0.9c-1.1,0-1.8-0.8-1.8-2
							c0-1.8,1.3-2.9,3.4-2.9c0.2,0,0.5,0,0.8,0.1c0.1-0.2,0.1-0.3,0.1-0.5c0-0.5-0.3-0.7-1.2-0.7c-1,0-1.7,0.2-2.1,0.3
							c0-0.1,0.3-1.7,0.3-1.7c1-0.3,1.6-0.4,2.3-0.4c1.7,0,2.6,0.8,2.6,2.2c0,0.4-0.1,0.9-0.2,1.5
							C-287.2-476.9-287.5-474.6-287.6-474z"/>
						<path id="path3082" fill="#FFFFFF" d="M-261.5-482.9l-0.3,2c-0.7-0.3-1.2-0.5-1.7-0.5c-1.5,0-2.5,1.4-2.5,3.4
							c0,1.4,0.7,2.2,1.8,2.2c0.5,0,1-0.1,1.7-0.5l-0.3,2.1c-0.7,0.2-1.2,0.3-1.7,0.3c-2.1,0-3.4-1.5-3.4-3.9c0-3.3,1.8-5.5,4.4-5.5
							C-262.8-483.3-261.7-483-261.5-482.9z"/>
						<path id="path3084" fill="#FFFFFF" d="M-258.3-477.3c-0.2,0-0.3,0-0.4,0c-1.1,0-1.7,0.4-1.7,1.1c0,0.5,0.3,0.8,0.7,0.8
							C-258.9-475.4-258.4-476.2-258.3-477.3z M-256.9-474c-0.3,0-1.6,0-1.6,0v-0.8c-0.5,0.6-1.1,0.9-2,0.9c-1.1,0-1.8-0.8-1.8-2
							c0-1.8,1.3-2.9,3.4-2.9c0.2,0,0.5,0,0.8,0.1c0.1-0.2,0.1-0.3,0.1-0.5c0-0.5-0.3-0.7-1.2-0.7c-1,0-1.7,0.2-2.1,0.3
							c0-0.1,0.3-1.7,0.3-1.7c1-0.3,1.6-0.4,2.3-0.4c1.7,0,2.6,0.8,2.6,2.2c0,0.4-0.1,0.9-0.2,1.5
							C-256.5-476.9-256.9-474.6-256.9-474z"/>
						<path id="path3086" fill="#FFFFFF" d="M-278.9-474.1c-0.5,0.2-0.9,0.2-1.4,0.2c-1,0-1.5-0.6-1.5-1.6c0-0.3,0.1-1.2,0.3-2
							c0.1-0.7,0.8-5,0.8-5h1.9l-0.2,1.1h1l-0.3,1.8h-1c-0.2,1.4-0.5,3.2-0.5,3.4c0,0.4,0.2,0.5,0.7,0.5c0.2,0,0.4,0,0.5-0.1
							C-278.6-475.8-278.9-474.1-278.9-474.1z"/>
						<path id="path3088" fill="#FFFFFF" d="M-273-474.2c-0.7,0.2-1.3,0.3-2,0.3c-2.2,0-3.3-1.1-3.3-3.3c0-2.5,1.4-4.4,3.4-4.4
							c1.6,0,2.6,1,2.6,2.7c0,0.5-0.1,1.1-0.2,1.8h-3.9c-0.1,1.1,0.6,1.5,1.7,1.5c0.7,0,1.3-0.1,2-0.5
							C-272.7-476.1-273-474.2-273-474.2z M-274.1-478.6c0-0.2,0.2-1.3-0.9-1.3c-0.6,0-1.1,0.5-1.2,1.3H-274.1z"/>
						<path id="path3090" fill="#FFFFFF" d="M-286.4-479.1c0,0.9,0.5,1.6,1.5,2.1c0.8,0.4,0.9,0.5,0.9,0.8c0,0.5-0.3,0.7-1.1,0.7
							c-0.6,0-1.1-0.1-1.7-0.3c0,0-0.3,1.6-0.3,1.7c0.4,0.1,0.8,0.2,2,0.2c2.1,0,3-0.8,3-2.5c0-1-0.4-1.6-1.4-2.1
							c-0.8-0.4-0.9-0.5-0.9-0.8c0-0.4,0.3-0.6,1-0.6c0.4,0,0.9,0,1.4,0.1l0.3-1.7c-0.5-0.1-1.3-0.1-1.7-0.1
							C-285.7-481.6-286.4-480.4-286.4-479.1z"/>
						<path id="path3092" fill="#FFFFFF" d="M-246.6-474h-1.8l0.1-0.7c-0.5,0.6-1.1,0.8-1.8,0.8c-1.4,0-2.4-1.2-2.4-3.1
							c0-2.5,1.5-4.5,3.2-4.5c0.8,0,1.3,0.3,1.9,1l0.4-2.6h1.9C-245.1-483.1-246.6-474-246.6-474z M-249.5-475.7
							c0.9,0,1.5-1,1.5-2.5c0-0.9-0.4-1.5-1-1.5c-0.9,0-1.5,1-1.5,2.5C-250.5-476.2-250.1-475.7-249.5-475.7z"/>
						<path id="path3094" fill="#FFFFFF" d="M-255.2-481.4c-0.2,2.3-0.7,4.6-1,6.9l-0.1,0.5h2c0.7-4.5,0.9-5.4,2-5.3
							c0.2-0.9,0.5-1.7,0.7-2.1c-0.8-0.2-1.3,0.3-1.9,1.2c0-0.4,0.1-0.7,0.1-1.1h-1.8L-255.2-481.4L-255.2-481.4z"/>
						<path id="path3096" fill="#FFFFFF" d="M-271.2-481.4c-0.2,2.3-0.7,4.6-1,6.9l-0.1,0.5h2c0.7-4.5,0.9-5.4,2-5.3
							c0.2-0.9,0.5-1.7,0.7-2.1c-0.8-0.2-1.3,0.3-1.9,1.2c0-0.4,0.1-0.7,0.1-1.1h-1.8L-271.2-481.4L-271.2-481.4z"/>
						<g id="g3098">
							<path id="path3100" fill="#FFFFFF" d="M-245.7-474.6c0-0.3,0.3-0.6,0.6-0.6s0.6,0.3,0.6,0.6c0,0.3-0.3,0.6-0.6,0.6
								C-245.5-474-245.7-474.3-245.7-474.6z M-245.2-474.1c0.2,0,0.4-0.2,0.4-0.4c0-0.2-0.2-0.4-0.4-0.4s-0.4,0.2-0.4,0.4
								C-245.6-474.3-245.4-474.1-245.2-474.1z M-245.2-474.3L-245.2-474.3l-0.1-0.5h0.2h0.1l0.1,0.1c0,0.1,0,0.1-0.1,0.1l0.1,0.2
								h-0.1l-0.1-0.2h-0.1C-245.2-474.6-245.2-474.3-245.2-474.3z M-245.2-474.6L-245.2-474.6c0.1,0,0.1,0,0.1,0s0,0,0-0.1
								c0,0,0,0,0-0.1h-0.1h-0.1L-245.2-474.6L-245.2-474.6z"/>
						</g>
					</g>
				</g>
			</g>
		</g>
		<g id="g3102">
			<path id="Shape_1_" fill="#0157A0" d="M-138.2-468.4l4-23.5h6.4l-4,23.5H-138.2L-138.2-468.4z"/>
			<path id="path13_1_" fill="#0157A0" d="M-108.6-491.4c-1.3-0.5-3.3-1-5.8-1c-6.3,0-10.8,3.2-10.8,7.8c0,3.4,3.2,5.3,5.6,6.4
				c2.5,1.2,3.3,1.9,3.3,2.9c0,1.6-2,2.3-3.8,2.3c-2.6,0-3.9-0.4-6-1.2l-0.8-0.4l-0.9,5.3c1.5,0.7,4.3,1.2,7.1,1.3
				c6.7,0,11.1-3.2,11.2-8c0-2.7-1.7-4.7-5.4-6.4c-2.2-1.1-3.6-1.8-3.6-2.9c0-1,1.2-2,3.7-2c2.1,0,3.6,0.4,4.8,0.9l0.6,0.3
				L-108.6-491.4"/>
			<path id="Path_1_" fill="#0157A0" d="M-92-491.9h-5c-1.5,0-2.7,0.4-3.4,2l-9.5,21.5h6.7c0,0,1.1-2.9,1.4-3.5c0.7,0,7.3,0,8.2,0
				c0.2,0.8,0.8,3.5,0.8,3.5h6L-92-491.9L-92-491.9L-92-491.9z M-99.9-476.7c0.5-1.4,2.6-6.6,2.6-6.6c0,0.1,0.5-1.4,0.9-2.2l0.4,2
				c0,0,1.2,5.6,1.5,6.8L-99.9-476.7L-99.9-476.7L-99.9-476.7z"/>
			<path id="path16_1_" fill="#0157A0" d="M-143.6-491.9l-6.3,16.1l-0.7-3.3c-1.2-3.8-4.8-7.8-8.9-9.9l5.7,20.6h6.8l10.1-23.5
				L-143.6-491.9"/>
			<path id="path18_1_" fill="#F2AE14" d="M-155.7-491.9H-166l-0.2,0.5c8,1.9,13.4,6.7,15.6,12.3l-2.2-10.8
				C-153.2-491.4-154.4-491.9-155.7-491.9"/>
		</g>
		<g id="g3109">
			<g id="g3111">
				<g id="g3113">
					<g id="Shape_12_">
						<polygon id="polygon3116" fill="#0157A0" points="-50.2,-468.2 -56.6,-468.2 -56.6,-468.2 -52.6,-491.8 -46.2,-491.8 						
							"/>
					</g>
					<g id="path13_12_">
						<path id="path3119" fill="#0157A0" d="M-27-491.2c-1.3-0.5-3.3-1-5.8-1c-6.3,0-10.8,3.2-10.8,7.8c0,3.4,3.2,5.3,5.6,6.4
							c2.5,1.2,3.3,1.9,3.3,2.9c0,1.6-2,2.3-3.8,2.3c-2.6,0-3.9-0.4-6-1.2l-0.8-0.4l-0.9,5.3c1.5,0.7,4.3,1.2,7.1,1.3
							c6.7,0,11.1-3.2,11.2-8c0-2.7-1.7-4.7-5.4-6.4c-2.2-1.1-3.6-1.8-3.6-2.9c0-1,1.2-2,3.7-2c2.1,0,3.6,0.4,4.8,0.9l0.6,0.3
							L-27-491.2"/>
					</g>
					<g id="Path_12_">
						<g id="g3122">
							<path id="path3124" fill="#0157A0" d="M-10.5-491.8h-5c-1.5,0-2.7,0.4-3.4,2l-9.5,21.6h6.7c0,0,1.1-2.9,1.4-3.5
								c0.7,0,7.3,0,8.2,0c0.2,0.8,0.8,3.5,0.8,3.5h6L-10.5-491.8L-10.5-491.8z M-18.4-476.6c0.5-1.4,2.6-6.6,2.6-6.6
								c0,0.1,0.5-1.4,0.9-2.2l0.4,2c0,0,1.2,5.6,1.5,6.8L-18.4-476.6L-18.4-476.6L-18.4-476.6z"/>
						</g>
					</g>
					<g id="path16_12_">
						<path id="path3127" fill="#0157A0" d="M-62.1-491.8l-6.3,16.1l-0.7-3.3c-1.2-3.8-4.6-6.9-8.6-8.9l5.5,19.6h6.8l10.1-23.5
							L-62.1-491.8"/>
					</g>
					<path id="path18_10_" fill="#0157A0" d="M-74.2-491.8h-10.3l-0.1,0.5c8.7,0.8,13.6,5.8,15.6,12.3l-2.3-10.8
						C-71.7-491.3-72.8-491.7-74.2-491.8"/>
				</g>
				<g id="g3130">
					<path id="path3132" fill="#0157A0" d="M-43.6-458.1H-47v3.2h3.8v0.9h-4.9v-8.8h4.7v0.9H-47v2.8h3.4V-458.1z"/>
					<path id="path3134" fill="#0157A0" d="M-41.8-463.2h1.1v9.2h-1.1V-463.2z"/>
					<path id="path3136" fill="#0157A0" d="M-38.1-457c0,1.5,1,2.2,2.2,2.2c0.8,0,1.3-0.1,1.7-0.3l0.2,0.8c-0.4,0.2-1.1,0.4-2.1,0.4
						c-1.9,0-3.1-1.3-3.1-3.2s1.1-3.4,3-3.4c2.1,0,2.6,1.8,2.6,3c0,0.2,0,0.4,0,0.5H-38.1L-38.1-457z M-34.7-457.8
						c0-0.7-0.3-1.9-1.6-1.9c-1.2,0-1.7,1.1-1.8,1.9H-34.7z"/>
					<path id="path3138" fill="#0157A0" d="M-27.7-454.2c-0.3,0.2-1,0.4-1.8,0.4c-1.9,0-3.1-1.3-3.1-3.2c0-1.9,1.3-3.3,3.4-3.3
						c0.7,0,1.3,0.2,1.6,0.3l-0.3,0.9c-0.3-0.2-0.7-0.3-1.3-0.3c-1.4,0-2.2,1.1-2.2,2.4c0,1.5,0.9,2.4,2.2,2.4
						c0.6,0,1.1-0.2,1.4-0.3L-27.7-454.2L-27.7-454.2z"/>
					<path id="path3140" fill="#0157A0" d="M-24.8-462.1v1.8h1.6v0.9h-1.6v3.4c0,0.8,0.2,1.2,0.9,1.2c0.3,0,0.5,0,0.7-0.1l0.1,0.9
						c-0.2,0.1-0.6,0.2-1,0.2c-0.5,0-1-0.2-1.2-0.5c-0.3-0.3-0.4-0.9-0.4-1.6v-3.5h-1v-0.9h1v-1.5L-24.8-462.1z"/>
					<path id="path3142_1_" fill="#0157A0" d="M-22-460.3h1v1.2h0.1c0.3-0.8,1-1.4,1.7-1.4c0.1,0,0.2,0,0.3,0v1.1
						c-0.1,0-0.2,0-0.4,0c-1,0.1-1.5,1.3-1.6,2v3.4H-22"/>
					<path id="path3144" fill="#0157A0" d="M-12.1-457.2c0,2.3-1.6,3.3-3.1,3.3c-1.7,0-3-1.2-3-3.2c0-2.1,1.4-3.3,3.1-3.3
						C-13.3-460.4-12.1-459.1-12.1-457.2z M-17.1-457.1c0,1.4,0.8,2.4,1.9,2.4s1.9-1,1.9-2.4c0-1.1-0.5-2.4-1.9-2.4
						C-16.5-459.6-17.1-458.3-17.1-457.1z"/>
					<path id="path3146" fill="#0157A0" d="M-10.7-458.6c0-0.6,0-1.2-0.1-1.7h1l0.1,1l0,0c0.3-0.6,1-1.2,2.1-1.2
						c0.9,0,2.2,0.5,2.2,2.7v3.8h-1.1v-3.6c0-1-0.4-1.9-1.5-1.9c-0.8,0-1.6,0.7-1.6,1.7v3.8h-1.1C-10.7-454-10.7-458.6-10.7-458.6z"
						/>
				</g>
			</g>
		</g>
	</g>
</g>
</svg>
