<?xml version="1.0" encoding="utf-8"?>
<!-- Generator: Adobe Illustrator 18.1.0, SVG Export Plug-In . SVG Version: 6.00 Build 0)  -->
<svg version="1.1" id="Layer_1" xmlns="http://www.w3.org/2000/svg" xmlns:xlink="http://www.w3.org/1999/xlink" x="0px" y="0px"
	 width="120px" height="48px" viewBox="0 0 120 48" enable-background="new 0 0 120 48" xml:space="preserve">
<g>
	<path fill="#EE3E26" d="M0.5,0.8v41.5L8,46.8l0.3-15.3l21.8,11V16.3L0.5,0.8z M23.3,31.5L7.5,23.8V13.5l15.8,8V31.5z"/>
	<g>
		<polygon fill="#231F20" points="31.5,17.7 39.4,15.2 39.4,40.2 31.5,42.9 		"/>
		<polygon fill="#231F20" points="55.4,8.2 62.5,5.6 62.5,30.6 55.4,33.3 		"/>
		<polygon fill="#231F20" points="39.4,8.2 55.4,0.8 55.4,8.2 39.4,15.2 		"/>
		<polygon fill="#231F20" points="39.4,40.2 55.3,33.3 55.3,40.7 39.4,47.3 		"/>
	</g>
	<rect x="63.6" y="22.8" fill="#231F20" width="55.9" height="16.7"/>
	<rect x="63.6" y="5.5" fill="#EE3E26" width="55.9" height="17.2"/>
	<g>
		<path fill="#FFFDFD" d="M70.5,19v-8h3.9c2.3,0,3.4,1.1,3.4,2.7c0,1.7-1,2.8-3.3,2.8h-1.3V19H70.5z M74.2,14.7
			c0.6,0,1.1-0.2,1.1-0.9c0-0.7-0.8-0.8-1.4-0.8h-0.7v1.8H74.2z"/>
		<path fill="#FFFDFD" d="M78.6,19v-8h2.3v8H78.6z"/>
		<path fill="#FFFDFD" d="M86.3,19l-0.1-0.6c-0.7,0.6-1.3,0.8-2.2,0.8c-1.1,0-2.1-0.5-2.1-1.8c0-2.6,4.1-1.4,4.1-2.5
			c0-0.4-0.5-0.5-0.8-0.5c-0.3,0-0.8,0.1-0.8,0.6h-2.2c0-1.2,0.9-2,3.2-2c2.8,0,2.9,1,2.9,2.4v2.7c0,0.3,0,0.5,0.3,0.7V19H86.3z
			 M86,16.4c-0.8,0.4-1.8,0.2-1.8,0.9c0,0.3,0.3,0.5,0.7,0.5C85.8,17.9,86.1,17.2,86,16.4z"/>
		<path fill="#FFFDFD" d="M93.4,19c-3,0.2-3.4,0-3.4-2.1v-2.4h-0.8v-1.3H90v-1.8h2.3v1.8h1.1v1.3h-1.1v2.1c0,0.5,0.1,0.7,0.7,0.7
			h0.4V19z"/>
		<path fill="#FFFDFD" d="M94.7,10.8H97v1.6h-2.3V10.8z M94.7,19v-5.8H97V19H94.7z"/>
	</g>
	<g>
		<path fill="#FFFDFD" d="M78.3,31.2c0,2.6-1.8,4.1-4,4.1c-2.4,0-4-1.5-4-4.1c0-2.4,1.6-4,4-4C77,27.2,78.3,29.2,78.3,31.2z
			 M72.8,31.2c0,1,0.3,2.2,1.5,2.2c1.1,0,1.5-0.9,1.5-2.2c0-1-0.4-2.1-1.5-2.1C73.1,29.1,72.8,30.2,72.8,31.2z"/>
		<path fill="#FFFDFD" d="M79.3,29.5h2v0.9c0.5-0.7,1-1,1.9-1c1.5,0,2.2,0.9,2.2,2.4v3.3h-2.2v-2.9c0-0.6-0.1-1-0.8-1
			c-0.7,0-0.9,0.4-0.9,1.1v2.8h-2.2V29.5z"/>
		<path fill="#FFFDFD" d="M86.5,35.1v-7.7h2.2v7.7H86.5z"/>
		<path fill="#FFFDFD" d="M90,27.2h2.2v1.6H90V27.2z M90,35.1v-5.6h2.2v5.6H90z"/>
		<path fill="#FFFDFD" d="M93.4,29.5h2v0.9c0.5-0.7,1-1,1.9-1c1.5,0,2.2,0.9,2.2,2.4v3.3h-2.2v-2.9c0-0.6-0.1-1-0.8-1
			c-0.7,0-0.9,0.4-0.9,1.1v2.8h-2.2V29.5z"/>
		<path fill="#FFFDFD" d="M102.6,32.8c0,0.7,0.5,1.1,1.1,1.1c0.4,0,0.7-0.2,0.8-0.5h2.1c-0.4,1.4-1.8,1.8-3.1,1.8
			c-1.8,0-3.2-1-3.2-2.9c0-1.8,1.4-3,3.2-3c2.1,0,3.3,1.4,3.3,3.4H102.6z M104.6,31.7c0-0.5-0.5-1-1-1c-0.7,0-1,0.4-1,1H104.6z"/>
	</g>
</g>
</svg>
